<svg width="200" height="200" xmlns="http://www.w3.org/2000/svg" xmlns:xlink="http://www.w3.org/1999/xlink"><defs><circle id="a" cx="100" cy="100" r="100"/><path d="M54 24.4a2 2 0 1 1 0-4.2 2 2 0 0 1 0 4.2m-10.5 0a2 2 0 1 1 0-4.2 2 2 0 0 1 0 4.2M56.1 11c-1.3-1-3.1 0-3.1 1.6v.2c0 1.1-1 2-2 2h-4.4a2 2 0 0 1-2-2v-.2c0-1.6-1.8-2.6-3.2-1.7a12.5 12.5 0 0 0-5.2 10.7 2 2 0 0 1-3 1.8A21 21 0 0 0 2.7 42.1v10.6a2 2 0 0 0 2 2H30a2 2 0 0 0 2.1-2 2 2 0 0 0-2-2.1H9a2 2 0 0 1-2.1-2.1 2 2 0 0 1 2-2.1h33.6a2 2 0 0 0 2-2.1v-2.1c0-2.1-.2-4.2-.8-6.1-.5-1.5.9-3 2.4-2.6a12.6 12.6 0 0 0 10-22.4" id="c"/></defs><g fill="none" fill-rule="evenodd"><mask id="b" fill="#fff"><use xlink:href="#a"/></mask><use fill="#F5F5F5" fill-rule="nonzero" xlink:href="#a"/><g opacity=".3" mask="url(#b)"><g transform="translate(68 68)"><mask id="d" fill="#fff"><use xlink:href="#c"/></mask><use fill="#444" xlink:href="#c"/><g mask="url(#d)" fill-rule="nonzero"><path d="M-138.7-138.7h341v341h-341z" fill="#444"/></g></g></g></g></svg>