<svg width="200" height="200" xmlns="http://www.w3.org/2000/svg" xmlns:xlink="http://www.w3.org/1999/xlink"><defs><circle id="a" cx="100" cy="100" r="100"/><path d="M22.93 49.37c1.1 0 1.99.89 1.99 1.99v4.08a2.02 2.02 0 1 1-4.05 0v-4.08c0-1.1.9-2 2-2h.06zM49.2 12.95a2.02 2.02 0 1 0 0-4.04 2.02 2.02 0 0 0 0 4.04zm11.57-.28a2 2 0 0 1 .56 1.4v2.22c0 .97-.68 1.8-1.63 1.98-1.62.32-5.24.77-8.17 1.03a.46.46 0 0 0-.4.32c-.05.18.02.38.17.5a15.12 15.12 0 0 1 .6 23.62c-.43.35-.68.88-.68 1.43v10.27a2.02 2.02 0 1 1-4.05 0v-7.66a.98.98 0 0 0-1.23-.94c-.66.17-1.33.3-2.01.38a.9.9 0 0 0-.8.9v7.32a2.02 2.02 0 1 1-4.05 0v-7.16a.94.94 0 0 0-.93-.93H20.87a14.53 14.53 0 0 1-3.43-.68.47.47 0 0 0-.61.45v8.32a2.02 2.02 0 1 1-4.05 0V45.22c0-.58-.27-1.13-.71-1.5a15.15 15.15 0 0 1-4.87-7.73 1.02 1.02 0 0 0-1-.78H4.7a2.02 2.02 0 1 1 0-4.05h1.15c.52 0 .95-.4 1.01-.91A15.16 15.16 0 0 1 21.89 17H42.56c.14 0 .27-.07.35-.2a.38.38 0 0 0-.02-.4 5.62 5.62 0 0 1-.78-4.47c.09-.38-.02-.78-.3-1.05l-1.25-1.25a2.03 2.03 0 0 1 2.86-2.87l.8.78c.3.32.79.4 1.19.2.22-.12.45-.21.68-.3a.44.44 0 0 0 .28-.3.43.43 0 0 0-.11-.4c-.15-.15-.3-.3-.42-.46a.47.47 0 0 1-.13-.38c.02-.14.1-.26.22-.33.76-.4 1.73-.29 2.38.36l.88.87c.28.28.64.47 1.04.54 4.36.86 9.24 4 10.54 5.33z" id="c"/></defs><g fill="none" fill-rule="evenodd"><mask id="b" fill="#fff"><use xlink:href="#a"/></mask><use fill="#F5F5F5" fill-rule="nonzero" xlink:href="#a"/><g opacity=".3" mask="url(#b)"><g transform="translate(68 68)"><mask id="d" fill="#fff"><use xlink:href="#c"/></mask><use fill="#444" xlink:href="#c"/><g mask="url(#d)" fill-rule="nonzero"><path d="M-138.67-138.67h341v341h-341z" fill="#444"/></g></g></g></g></svg>