<svg width="200" height="200" xmlns="http://www.w3.org/2000/svg" xmlns:xlink="http://www.w3.org/1999/xlink"><defs><circle id="a" cx="100" cy="100" r="100"/><path d="M48.8 32.6a2 2 0 1 1 0-4.2 2 2 0 0 1 0 4.2m11.7-1a27.9 27.9 0 0 0-45.6-2.2c-.7 1-2 1-2.8.2-2-2-4.5-3.2-7.3-3.7-1.1-.2-2.1.8-2.1 2v9.5c0 1.2 1 2.1 2.1 2 2.8-.5 5.4-1.8 7.3-3.7.9-.8 2.1-.8 2.8.1a27.8 27.8 0 0 0 45.6-2.2c.4-.6.4-1.4 0-2" id="c"/></defs><g fill="none" fill-rule="evenodd"><mask id="b" fill="#fff"><use xlink:href="#a"/></mask><use fill="#F5F5F5" fill-rule="nonzero" xlink:href="#a"/><g opacity=".3" mask="url(#b)"><g transform="translate(68 68)"><mask id="d" fill="#fff"><use xlink:href="#c"/></mask><use fill="#444" xlink:href="#c"/><g mask="url(#d)" fill-rule="nonzero"><path d="M-138.7-138.7h341v341h-341z" fill="#444"/></g></g></g></g></svg>