<svg width="200" height="200" xmlns="http://www.w3.org/2000/svg" xmlns:xlink="http://www.w3.org/1999/xlink"><defs><circle id="a" cx="100" cy="100" r="100"/><path d="M45 26.5a1.8 1.8 0 1 1 0-3.7 1.8 1.8 0 0 1 0 3.7M32.4 8c-1.3-.1-2.3.9-2.3 2.1v.7c0 .5-.4.9-1 1-2.5 0-5.1.5-7.8 1.6-5.1 2-9.3 6-11.5 11C8.6 27.6 8 30.8 8 33.8l.1 2v.3l.4 2.5.2.7a21.5 21.5 0 0 0 1.5 4c0 .3.2.6.3.8l1.1 2 .2.1 1.4 2 .5.5a21.9 21.9 0 0 0 3.2 2.9l.6.4c.6.5 1.3.9 2 1.2v.1l2.3 1c.2.2.5.2.7.3a22.2 22.2 0 0 0 4.3 1.1l.8.1A22.2 22.2 0 0 0 51 41.5c.5-1.6-.6-3.2-2.2-3.2a2 2 0 0 0-2 1.4 17.7 17.7 0 0 1-20.2 11.5c-5.5-1.1-8.6-7.2-6-12.1l.8-1.5a8.7 8.7 0 0 1 7.3-3.8c.8 0 1.5.7 1.5 1.5V38c0 .8.6 1.4 1.3 1.4h1c.7 0 1.3-.6 1.3-1.4v-2.7c0-.8.7-1.5 1.5-1.5h.8c.8 0 1.4.7 1.4 1.5V38c0 .8.6 1.4 1.4 1.4h1c.7 0 1.3-.6 1.3-1.4v-2.7c0-.8.7-1.5 1.5-1.5h11.2c1.2 0 2.2-1 2-2.3A26 26 0 0 0 32.6 8" id="c"/></defs><g fill="none" fill-rule="evenodd"><mask id="b" fill="#fff"><use xlink:href="#a"/></mask><use fill="#F5F5F5" fill-rule="nonzero" xlink:href="#a"/><g opacity=".3" mask="url(#b)"><g transform="translate(68 68)"><mask id="d" fill="#fff"><use xlink:href="#c"/></mask><use fill="#444" xlink:href="#c"/><g mask="url(#d)" fill-rule="nonzero"><path d="M-138.7-138.7h341v341h-341z" fill="#444"/></g></g></g></g></svg>