<svg width="200" height="200" xmlns="http://www.w3.org/2000/svg" xmlns:xlink="http://www.w3.org/1999/xlink"><defs><circle id="a" cx="100" cy="100" r="100"/><path d="M33.49 10.8a2.02 2.02 0 1 0 0-4.04 2.02 2.02 0 0 0 0 4.05zm5.34 9.32a15.85 15.85 0 0 1 5.6 19.02 16.03 16.03 0 0 1-5.96 7.33c-.57.38-.94.99-.94 1.67v9.2a2.02 2.02 0 1 1-4.04 0V51.1c0-1.17-1-2.12-2.17-1.98h-.04c-1 .12-1.84 1-1.84 2.01v6.2a2.02 2.02 0 1 1-4.04 0v-7.85c0-.45-.3-.84-.72-.97-.44-.13-.89-.28-1.32-.46-1.87-.76-3.51-2.18-4.91-3.63a1 1 0 0 0-1.69.38l-1.07 3.23a4.14 4.14 0 0 1-4.14 2.66c-.65-.05-1.04-.75-.82-1.36l3.76-10.1 3.62-9.72 4.12-10.91 3.8-10.1.04-.1.03-.06.05-.14h.02a9.1 9.1 0 0 1 17.41 4.3 9 9 0 0 1-4.73 7.27.2.2 0 0 0-.11.18c0 .07.03.13.09.17zm6.06-17.45c4.82-.02 8.86 3.36 9.11 7.72a.4.4 0 0 1-.4.42h-7.67a.4.4 0 0 1-.4-.36 11.24 11.24 0 0 0-3.74-7.07.4.4 0 1 1 .26-.72h2.84z" id="c"/></defs><g fill="none" fill-rule="evenodd"><mask id="b" fill="#fff"><use xlink:href="#a"/></mask><use fill="#F5F5F5" fill-rule="nonzero" xlink:href="#a"/><g opacity=".3" mask="url(#b)"><g transform="translate(68 68)"><mask id="d" fill="#fff"><use xlink:href="#c"/></mask><use fill="#444" xlink:href="#c"/><g mask="url(#d)" fill-rule="nonzero"><path d="M-138.67-138.67h341v341h-341z" fill="#444"/></g></g></g></g></svg>