<svg width="200" height="200" xmlns="http://www.w3.org/2000/svg" xmlns:xlink="http://www.w3.org/1999/xlink"><defs><circle id="a" cx="100" cy="100" r="100"/><path d="M36.3 13.74h22.9c1.27 0 2.32 1.05 2.1 2.31a15.37 15.37 0 0 1-9.03 11.98c-.84.42-1.26 1.05-1.26 1.9v25.84c0 1.27-.84 2.1-2.1 2.1-1.27 0-2.1-.83-2.1-2.1v-8.4c0-1.26-.85-2.1-2.1-2.1H36.3c-1.27 0-2.1.84-2.1 2.1v8.4c0 1.27-.85 2.1-2.1 2.1-1.27 0-2.11-.83-2.11-2.1v-8.4c0-1.26-.84-2.1-2.1-2.1H8.97c-1.26 0-2.1.84-2.1 2.1v8.4c0 1.27-.84 2.1-2.1 2.1-1.26 0-2.1-.83-2.1-2.1V17.96c0-1.27.84-2.1 2.1-2.1 1.26 0 2.1.83 2.1 2.1v8.4c0 1.26.84 2.1 2.1 2.1H27.9c1.26 0 2.1-.84 2.1-2.1V7.44c0-1.27.84-2.1 2.1-2.1 1.26 0 2.1.83 2.1 2.1v4.2c0 1.26.84 2.1 2.1 2.1zm0 6.3c0 1.27.84 2.1 2.1 2.1 1.26 0 2.1-.83 2.1-2.1 0-1.26-.84-2.1-2.1-2.1-1.26 0-2.1.84-2.1 2.1zM15.28 57.89c-1.26 0-2.1-.84-2.1-2.1v-6.3c0-1.27.84-2.11 2.1-2.11 1.26 0 2.1.84 2.1 2.1v6.3c0 1.27-.84 2.1-2.1 2.1z" id="c"/></defs><g fill="none" fill-rule="evenodd"><mask id="b" fill="#fff"><use xlink:href="#a"/></mask><use fill="#F5F5F5" fill-rule="nonzero" xlink:href="#a"/><g opacity=".3" mask="url(#b)"><g transform="translate(68 68)"><mask id="d" fill="#fff"><use xlink:href="#c"/></mask><use fill="#444" fill-rule="nonzero" xlink:href="#c"/><g mask="url(#d)" fill-rule="nonzero"><path d="M-138.67-138.67h341v341h-341z" fill="#444"/></g></g></g></g></svg>