<svg width="200" height="200" xmlns="http://www.w3.org/2000/svg" xmlns:xlink="http://www.w3.org/1999/xlink"><defs><circle id="a" cx="100" cy="100" r="100"/><path d="M50.9 24.2a2 2 0 1 1 0-4.2 2 2 0 0 1 0 4.2m-.7-6.8c-.4 0-.7-.2-1-.4l-14-11c-1.1-1-2.9-.8-3.9.4-.3.4-.2 1 .2 1.2l12.7 10.1v.6c-.3 0-.5.2-.8.3a1 1 0 0 1-1.2 0l-13.8-11a2.8 2.8 0 0 0-3.5 4.3l14 11.2c.4.2.5.6.4 1a9.5 9.5 0 0 0 0 5.1 1 1 0 0 1-1 1.3H21.5c-7.2 0-13.2 5.2-14.4 12.1 0 .3-.3.5-.5.5H4.8a2 2 0 1 0 0 4.2h1.8c.2 0 .4.1.5.4a14.7 14.7 0 0 0 13.4 12.1h6.3a2 2 0 1 0 0-4.2H26a1 1 0 0 1-.8-1.4l.1-.2c1.5-2.2 2.6-4 5.1-5.1a1 1 0 0 1 1.5.9v8a2 2 0 1 0 4.2 0v-9.3c0-.6.4-1 1-1l2.1-.2a1 1 0 0 1 1 1v9.4a2 2 0 1 0 4.3 0V46v-9.1a1 1 0 0 1 1.1-1c8.7 1 15.6-3.5 15.6-9.3 0-4.7-4.6-8.5-11-9.2" id="c"/></defs><g fill="none" fill-rule="evenodd"><mask id="b" fill="#fff"><use xlink:href="#a"/></mask><use fill="#F5F5F5" fill-rule="nonzero" xlink:href="#a"/><g opacity=".3" mask="url(#b)"><g transform="translate(68 68)"><mask id="d" fill="#fff"><use xlink:href="#c"/></mask><use fill="#444" xlink:href="#c"/><g mask="url(#d)" fill-rule="nonzero"><path d="M-138.7-138.7h341v341h-341z" fill="#444"/></g></g></g></g></svg>