<svg width="200" height="200" xmlns="http://www.w3.org/2000/svg" xmlns:xlink="http://www.w3.org/1999/xlink"><defs><circle id="a" cx="100" cy="100" r="100"/><path d="M53.24 19.42a2.02 2.02 0 1 0 0-4.05 2.02 2.02 0 0 0 0 4.05zm6.17 5.92c.2.78-.08 1.61-.73 2.1l-2.1 1.62c-.9.7-2.2.5-2.87-.42l-3.73-5.2a.43.43 0 0 0-.49-.15.43.43 0 0 0-.3.4v32.14a2.02 2.02 0 1 1-4.04 0v-8.1a2.02 2.02 0 1 0-4.05 0v8.1a2.02 2.02 0 1 1-4.04 0v-8.1c0-1.1-.9-2.01-2.03-2.01H14.8c-1.11 0-2.02.9-2.02 2.02v8.1a2.02 2.02 0 1 1-4.04 0V33.57c0-1.22.28-2.36.78-3.4a.46.46 0 0 0-.41-.65H7.9c-.66 0-1.19.53-1.19 1.19v6.9a2.02 2.02 0 1 1-4.04 0v-8.09A4.05 4.05 0 0 1 6.7 25.5h28.46a2 2 0 0 0 2-1.75c.64-5.25 4.17-9.6 8.95-11.45a.5.5 0 0 0 .26-.72l-.68-1.18a2.02 2.02 0 1 1 3.5-2.02l1.24 2.14c.3.52.82.89 1.43.98l2.81.45c.8.13 1.44.72 1.64 1.5l3.09 11.9zM16.83 49.76a2.02 2.02 0 1 1 4.04 0v6.07a2.02 2.02 0 1 1-4.04 0v-6.07z" id="c"/></defs><g fill="none" fill-rule="evenodd"><mask id="b" fill="#fff"><use xlink:href="#a"/></mask><use fill="#F5F5F5" fill-rule="nonzero" xlink:href="#a"/><g opacity=".3" mask="url(#b)"><g transform="translate(68 68)"><mask id="d" fill="#fff"><use xlink:href="#c"/></mask><use fill="#444" xlink:href="#c"/><g mask="url(#d)" fill-rule="nonzero"><path d="M-138.67-138.67h341v341h-341z" fill="#444"/></g></g></g></g></svg>