<svg width="200" height="200" xmlns="http://www.w3.org/2000/svg" xmlns:xlink="http://www.w3.org/1999/xlink"><defs><circle id="a" cx="100" cy="100" r="100"/><path d="M57.4 19.8c-.2 0-.3.1-.4.3a9.9 9.9 0 0 1-1.3 3.2 2 2 0 0 0-.4 1.1v7.3a2 2 0 1 1-4 0v-4.3a.4.4 0 0 0-.4-.3l-1.7.5c-.2 0-.3.1-.3.3-.8 8.7-6.4 16-14.1 19.2a2 2 0 0 0-1.2 1.8v6.5a2 2 0 1 1-4 0v-4.5a2 2 0 0 0-2.1-2h-1.8a2 2 0 0 0-2 2v4.5a2 2 0 0 1-2 2 2 2 0 0 1-2-2v-5.8a2 2 0 0 0-1.3-1.9A23.2 23.2 0 0 1 2.7 27.8a2 2 0 0 1 1.9-2h32.6a2 2 0 0 0 1.7-3 9 9 0 0 1-1.4-5c0-3.9 2.3-7.3 5.6-8.9l.2-.2v-.3c-.8-1.5.7-3.4 2.3-2.7.5.2 1 .5 1.3.9.2 0 .3.1.4 0 .2 0 .3 0 .3-.2.6-1.4 2.8-1.5 3.5.1l.1.5.2.1h.1l1-1c1.5-1.5 4 0 3.2 2a3.9 3.9 0 0 1-1.6 1.8.4.4 0 0 0 0 .6c1.4 1.4 2.4 3 3 5 0 .2.1.4.3.4a4 4 0 0 1 4 3.5c0 .2-.2.4-.5.4h-3.5zm-5-5a2 2 0 1 1-4 0 2 2 0 0 1 4 0z" id="c"/></defs><g fill="none" fill-rule="evenodd"><mask id="b" fill="#fff"><use xlink:href="#a"/></mask><use fill="#F5F5F5" fill-rule="nonzero" xlink:href="#a"/><g opacity=".3" mask="url(#b)"><g transform="translate(68 68)"><mask id="d" fill="#fff"><use xlink:href="#c"/></mask><use fill="#444" xlink:href="#c"/><g mask="url(#d)" fill-rule="nonzero"><path d="M-138.7-138.7h341v341h-341z" fill="#444"/></g></g></g></g></svg>