<svg width="291" height="40" viewBox="0 0 291 40" fill="none" xmlns="http://www.w3.org/2000/svg">
<g clip-path="url(#clip0)">
<path d="M28.9616 8.47026C29.2887 8.47005 29.6084 8.37283 29.8802 8.19091C30.1521 8.00898 30.3639 7.75051 30.4889 7.44819C30.6139 7.14586 30.6464 6.81326 30.5824 6.49244C30.5184 6.17163 30.3607 5.877 30.1292 5.64582C29.8978 5.41465 29.603 5.2573 29.2821 5.19368C28.9613 5.13007 28.6287 5.16304 28.3266 5.28843C28.0245 5.41382 27.7663 5.62599 27.5848 5.89812C27.4032 6.17025 27.3064 6.49011 27.3066 6.81725C27.3068 7.03447 27.3497 7.24953 27.4329 7.45016C27.5162 7.65079 27.6381 7.83305 27.7918 7.98655C27.9455 8.14004 28.1279 8.26177 28.3286 8.34476C28.5293 8.42776 28.7444 8.4704 28.9616 8.47026Z" fill="#00AFA2"/>
<path d="M8.84051 13.6309C11.9828 13.6309 14.5399 10.5737 14.5399 6.81598C14.5399 3.05828 11.9828 0 8.84051 0C5.69826 0 3.14111 3.05828 3.14111 6.81598C3.14111 10.5737 5.6972 13.6309 8.84051 13.6309ZM8.84051 3.0209C10.2937 3.0209 11.5194 4.75934 11.5194 6.81598C11.5194 8.87263 10.2937 10.6111 8.84051 10.6111C7.38737 10.6111 6.16165 8.87263 6.16165 6.81598C6.16165 4.75934 7.38737 3.0209 8.84051 3.0209Z" fill="#00AFA2"/>
<path d="M28.96 13.6309C32.1034 13.6309 34.6605 10.5737 34.6605 6.81598C34.6605 3.05828 32.1034 0 28.96 0C25.8167 0 23.2617 3.05828 23.2617 6.81598C23.2617 10.5737 25.8178 13.6309 28.96 13.6309ZM28.96 3.0209C30.4132 3.0209 31.64 4.75934 31.64 6.81598C31.64 8.87263 30.4132 10.6111 28.96 10.6111C27.5069 10.6111 26.2812 8.87263 26.2812 6.81598C26.2812 4.75934 27.508 3.0209 28.96 3.0209Z" fill="#00AFA2"/>
<path d="M37.2873 23.9941L19.8955 8.75611C19.6203 8.51455 19.2666 8.38135 18.9004 8.38135C18.5342 8.38135 18.1805 8.51455 17.9053 8.75611L0.515633 23.9941C0.214054 24.2579 0.0296117 24.6307 0.00288057 25.0305C-0.0238506 25.4304 0.109319 25.8244 0.373095 26.126C0.63687 26.4276 1.00964 26.6121 1.40941 26.6388C1.80917 26.6656 2.20319 26.5324 2.50476 26.2686L5.61392 23.5456V35.9005C5.61533 36.9878 6.04807 38.0302 6.81715 38.7987C7.58624 39.5673 8.62881 39.9993 9.71603 39.9999H28.0901C29.1767 39.9985 30.2183 39.5661 30.9866 38.7976C31.7548 38.029 32.1869 36.9872 32.188 35.9005V23.5435L35.2971 26.2686C35.5984 26.5325 35.9922 26.666 36.3919 26.6395C36.7916 26.6131 37.1644 26.429 37.4283 26.1276C37.6922 25.8263 37.8256 25.4325 37.7992 25.0327C37.7727 24.633 37.5886 24.2602 37.2873 23.9962V23.9941ZM29.1728 35.9005C29.1725 36.1865 29.0588 36.4608 28.8567 36.6631C28.6545 36.8655 28.3804 36.9795 28.0944 36.98H20.4112V32.4845L25.3227 27.4411L25.3536 27.408C26.2963 26.3781 26.8177 25.0316 26.8142 23.6353C26.8142 20.576 24.3585 18.0826 21.3391 18.0826C20.491 18.0849 19.6552 18.2853 18.8983 18.6677C18.1419 18.2876 17.3073 18.0891 16.4607 18.0879C13.4423 18.0879 10.9877 20.576 10.9877 23.6406C10.9843 25.0369 11.5056 26.3834 12.4483 27.4133L12.4803 27.4464L17.3918 32.4898V36.9854H9.71603C9.43002 36.9848 9.15589 36.8709 8.95375 36.6685C8.75161 36.4661 8.63793 36.1918 8.63765 35.9058V20.8974L18.8983 11.903L29.1664 20.8974L29.1728 35.9005ZM18.8983 29.707L14.6616 25.3524C14.2379 24.8812 14.0045 24.2691 14.0071 23.6353C14.0071 22.2407 15.1079 21.1077 16.4628 21.1077C17.0064 21.1074 17.5338 21.2928 17.9576 21.6331C18.2247 21.8457 18.5559 21.9615 18.8972 21.9615C19.2385 21.9615 19.5698 21.8457 19.8368 21.6331C20.2607 21.2931 20.7881 21.1081 21.3316 21.1088C22.6865 21.1088 23.7873 22.2418 23.7873 23.6364C23.7903 24.2698 23.5578 24.8818 23.1349 25.3535L18.8983 29.707Z" fill="#00AFA2"/>
<path d="M8.8404 8.47026C9.16755 8.47026 9.48735 8.37322 9.75935 8.19143C10.0314 8.00963 10.2433 7.75123 10.3685 7.44893C10.4936 7.14662 10.5263 6.81399 10.4624 6.4931C10.3985 6.17221 10.2409 5.87748 10.0095 5.6462C9.77808 5.41492 9.48329 5.25746 9.1624 5.19376C8.84151 5.13006 8.50893 5.16297 8.20675 5.28833C7.90456 5.41368 7.64633 5.62586 7.46473 5.89801C7.28313 6.17016 7.18631 6.49006 7.18652 6.81725C7.18709 7.25567 7.36155 7.67595 7.67162 7.98586C7.98169 8.29577 8.40203 8.46998 8.8404 8.47026Z" fill="#00AFA2"/>
<path d="M225.975 15.3352C227.456 15.3352 228.451 14.5098 228.451 13.2711C228.451 12.0324 227.456 11.2305 225.975 11.2305C224.494 11.2305 223.497 12.0313 223.497 13.2711C223.497 14.5109 224.493 15.3352 225.975 15.3352Z" fill="#00AFA2"/>
<path d="M94.4757 21.4091L92.6766 20.9296C91.2672 20.5409 90.6597 20.1757 90.6597 19.4955C90.6597 18.8879 91.0975 18.4757 92.0691 18.4757C93.1859 18.4757 94.3518 19.1805 95.8573 20.637C95.9718 20.7563 96.1246 20.8314 96.2889 20.8494C96.4533 20.8673 96.6187 20.8269 96.7563 20.7352L96.9986 20.589C97.2901 20.4427 97.3627 20.1511 97.193 19.8116L95.9053 17.1153C95.7601 16.8248 95.585 16.6775 95.2743 16.6775C94.9636 16.6775 94.6924 16.8483 94.134 16.8483C93.3791 16.8483 92.652 16.6348 91.7765 16.6348C88.9599 16.6348 87.3573 17.9952 87.3573 20.2067C87.3573 22.3925 88.7891 23.3621 90.853 23.9708L92.699 24.5282C94.0358 24.9169 94.6209 25.3825 94.6209 26.1086C94.6209 26.8347 94.087 27.249 93.1154 27.249C91.6345 27.249 90.1034 26.3264 88.6951 24.6264C88.4282 24.2869 88.1122 24.2367 87.7961 24.4075L87.3594 24.651C87.0199 24.8443 86.8971 25.1849 87.0915 25.549L88.6193 28.6725C88.7645 28.9629 89.0069 29.1818 89.3229 29.1818C89.8077 29.1818 90.0031 28.8914 90.6042 28.8914C91.2053 28.8914 91.9655 29.2555 93.2734 29.2555C96.263 29.2555 98.1304 27.846 98.1069 25.296C98.1219 23.0653 96.7584 22.0156 94.4757 21.4091Z" fill="#00AFA2"/>
<path d="M85.7171 27.0216L85.3765 26.8988C84.8907 26.729 84.7209 26.4866 84.7209 25.9752V17.3257C84.7209 16.6209 84.2586 16.4277 83.6041 16.6209L79.9109 17.7133C79.5469 17.8351 79.4027 18.054 79.4027 18.3935V19.0075C79.4027 19.3717 79.5469 19.518 79.9366 19.6386C80.7384 19.8586 80.9092 20.1992 80.9092 20.8784V25.201C80.9092 25.5405 80.8356 25.7595 80.496 25.9538C79.8458 26.3305 79.1118 26.539 78.3606 26.5603C77.6132 26.5603 77.3164 26.1236 77.3164 25.2245V17.3289C77.3164 16.6241 76.8552 16.4309 76.1996 16.6241L72.5075 17.7165C72.1188 17.8383 71.9736 18.0572 71.9736 18.3967V19.0075C71.9736 19.3717 72.1188 19.518 72.5075 19.6386C73.3328 19.8586 73.5037 20.1992 73.5037 20.8784V25.5181C73.5037 27.8983 74.5233 29.2555 76.9513 29.2555C78.288 29.2555 79.4294 28.916 80.2537 28.2593L80.6925 27.9186C80.8868 27.7734 81.032 27.8716 81.0812 28.113L81.1281 28.3319C81.2509 28.7932 81.4687 28.9875 81.931 28.9875H85.6189C85.7035 28.9943 85.7886 28.9826 85.8683 28.9532C85.9479 28.9239 86.0203 28.8777 86.0804 28.8177C86.1405 28.7577 86.1868 28.6854 86.2163 28.6058C86.2457 28.5261 86.2576 28.4411 86.251 28.3564V27.7008C86.251 27.3366 86.0566 27.1231 85.7171 27.0216Z" fill="#00AFA2"/>
<path d="M106.731 26.0731C106.147 26.0731 105.983 26.607 105.054 26.607C104.422 26.607 104.157 26.3155 104.157 25.6834V19.4408C104.155 19.4022 104.162 19.3637 104.176 19.3277C104.19 19.2918 104.211 19.2591 104.238 19.2317C104.265 19.2044 104.298 19.1829 104.334 19.1687C104.37 19.1545 104.408 19.1479 104.447 19.1493H106.487C106.875 19.1493 107.119 18.9069 107.119 18.5182V17.4503C107.119 17.0627 106.875 16.8438 106.487 16.8438H104.472C104.433 16.8453 104.394 16.8388 104.358 16.8247C104.322 16.8106 104.29 16.7891 104.262 16.7617C104.235 16.7343 104.214 16.7016 104.2 16.6655C104.186 16.6295 104.179 16.5909 104.181 16.5523V14.9495C104.181 14.391 103.889 14.0952 103.403 14.0952C102.966 14.0952 102.675 14.2661 102.31 14.6046C101.363 15.4791 100.342 16.4028 99.2013 17.1791C98.8127 17.4215 98.6675 17.6415 98.6675 18.0056V18.515C98.6675 18.9282 98.9099 19.1461 99.2985 19.1461H100.046C100.085 19.1446 100.123 19.1511 100.159 19.1652C100.195 19.1793 100.228 19.2007 100.255 19.2281C100.283 19.2555 100.304 19.2882 100.318 19.3243C100.332 19.3603 100.339 19.3989 100.337 19.4376V26.1649C100.337 28.2045 101.578 29.2499 103.715 29.2499C106.094 29.2499 107.308 28.0347 107.308 26.7234C107.313 26.3155 107.091 26.0731 106.731 26.0731Z" fill="#00AFA2"/>
<path d="M58.6263 12.0333C58.5057 11.572 58.2612 11.4492 57.9216 11.4492H57.7081C57.4412 11.4492 57.2725 11.5475 57.0291 11.7172C56.7789 11.8926 56.4804 11.9859 56.1749 11.9842H47.3343C47.0288 11.9859 46.7303 11.8926 46.4801 11.7172C46.2143 11.5475 46.068 11.4492 45.8 11.4492H45.5865C45.247 11.4492 45.0035 11.572 44.8818 12.0333L43.4233 17.207C43.3016 17.5957 43.3988 17.8626 43.7383 18.0089L44.4195 18.2759C44.8071 18.3965 45.0751 18.3731 45.2736 18.0089C46.7065 15.1898 47.8468 14.0248 48.7704 14.0248H48.8675C49.427 14.0248 49.6939 14.4135 49.6939 15.0702V25.8063C49.6939 26.3402 49.5477 26.6071 49.0127 26.7534L48.1383 26.967C47.7742 27.0652 47.629 27.2585 47.629 27.6718V28.3765C47.629 28.7396 47.8425 28.9831 48.26 28.9831H55.2545C55.6432 28.9831 55.8621 28.7396 55.8621 28.3765V27.6718C55.8621 27.2585 55.7403 27.0652 55.3763 26.967L54.5018 26.7534C53.9679 26.6071 53.8217 26.3402 53.8217 25.8063V15.0702C53.8217 14.39 54.0897 14.0248 54.6758 14.0248H54.7484C55.6709 14.0248 56.7878 15.1898 58.2452 18.0089C58.4406 18.3731 58.7075 18.4211 59.0993 18.2759L59.7795 18.0089C60.1201 17.8626 60.1927 17.5957 60.0998 17.207L58.6263 12.0333Z" fill="#00AFA2"/>
<path d="M69.8468 16.624C68.5655 16.624 67.4188 17.207 66.5678 18.0325C66.3009 18.2759 66.0586 18.1788 66.0586 17.9118V17.3533C66.0586 16.624 65.6208 16.4307 64.9417 16.624L61.4183 17.6684C61.0532 17.7655 60.8845 18.009 60.8845 18.3486V18.9562C60.8845 19.3192 61.0297 19.4666 61.4183 19.5872C62.2436 19.8307 62.4134 20.1703 62.4134 20.8505V25.9761C62.4134 26.51 62.2436 26.73 61.7578 26.8998L61.3927 27.0215C61.0521 27.1411 60.8823 27.3365 60.8823 27.7007V28.3809C60.8823 28.7439 61.1258 28.9874 61.5144 28.9874H67.3718C67.4529 28.9924 67.534 28.9801 67.61 28.9514C67.6859 28.9227 67.7549 28.8782 67.8124 28.8209C67.8699 28.7636 67.9146 28.6948 67.9436 28.6189C67.9725 28.543 67.9851 28.4619 67.9804 28.3809V27.7007C67.9804 27.312 67.8096 27.0931 67.469 27.0215L66.8625 26.8741C66.3757 26.7535 66.2305 26.4865 66.2305 25.975V21.0694C66.2305 20.1703 66.6191 19.7325 67.3238 19.7325C67.8833 19.7325 68.2954 20.0731 68.9253 20.9242C69.2168 21.2872 69.4111 21.4335 69.7261 21.4335C70.1404 21.4335 70.4073 21.1901 70.4554 20.7533L70.8205 17.5957C70.8953 16.9881 70.5515 16.624 69.8468 16.624Z" fill="#00AFA2"/>
<path d="M247.483 26.072C246.901 26.072 246.73 26.606 245.806 26.606C245.175 26.606 244.908 26.3134 244.908 25.6823V19.4408C244.907 19.4021 244.914 19.3634 244.928 19.3273C244.942 19.2912 244.963 19.2584 244.99 19.231C245.018 19.2035 245.051 19.182 245.087 19.1677C245.123 19.1535 245.161 19.1469 245.2 19.1482H247.24C247.628 19.1482 247.871 18.9058 247.871 18.516V17.4482C247.871 17.0595 247.628 16.8406 247.24 16.8406H245.225C245.186 16.8424 245.147 16.8362 245.111 16.8223C245.075 16.8085 245.042 16.7873 245.014 16.7601C244.987 16.7329 244.965 16.7004 244.951 16.6644C244.936 16.6285 244.93 16.5899 244.931 16.5512V14.9495C244.931 14.3921 244.64 14.0952 244.155 14.0952C243.717 14.0952 243.427 14.265 243.061 14.6056C242.115 15.4791 241.095 16.4028 239.953 17.1802C239.564 17.4237 239.419 17.6415 239.419 18.0056V18.515C239.419 18.9282 239.662 19.1471 240.05 19.1471H240.798C240.837 19.1456 240.875 19.1522 240.911 19.1664C240.948 19.1805 240.98 19.2021 241.008 19.2295C241.035 19.257 241.056 19.2899 241.071 19.3261C241.085 19.3623 241.091 19.401 241.089 19.4397V26.1671C241.089 28.2077 242.328 29.2521 244.464 29.2521C246.845 29.2521 248.06 28.0369 248.06 26.7256C248.067 26.3134 247.848 26.072 247.483 26.072Z" fill="#00AFA2"/>
<path d="M260.818 25.0513C260.428 24.7833 259.963 24.9776 259.652 25.2702C258.919 25.8908 257.987 26.2267 257.027 26.2163C255.449 26.2163 254.186 25.4881 253.504 24.3466C253.406 24.1768 253.43 24.0059 253.624 23.9344L260.23 21.5285C260.667 21.3588 260.814 21.0918 260.692 20.6305C260.012 18.0559 258.117 16.5503 255.3 16.5503C251.682 16.5503 249.204 19.1975 249.204 22.9135C249.204 26.6296 251.854 29.2586 255.668 29.2586C258.679 29.2586 260.354 27.8704 260.986 26.2217C261.231 25.6098 261.16 25.2937 260.818 25.0513ZM252.681 21.7474V21.6011C252.681 19.7303 253.701 18.687 255.036 18.687C255.838 18.687 256.542 19.1248 256.857 20.0229C256.956 20.2418 256.857 20.387 256.664 20.4607L253.021 21.9172C252.802 22.0144 252.681 21.9172 252.681 21.7474Z" fill="#00AFA2"/>
<path d="M238.059 26.072C237.477 26.072 237.312 26.606 236.384 26.606C235.752 26.606 235.485 26.3134 235.485 25.6823V19.4408C235.484 19.4021 235.49 19.3634 235.504 19.3273C235.518 19.2912 235.54 19.2584 235.567 19.231C235.594 19.2035 235.627 19.182 235.663 19.1677C235.699 19.1535 235.738 19.1469 235.777 19.1482H237.817C238.206 19.1482 238.448 18.9058 238.448 18.516V17.4482C238.448 17.0595 238.206 16.8406 237.817 16.8406H235.801C235.762 16.8423 235.724 16.8359 235.688 16.8219C235.652 16.8079 235.619 16.7866 235.592 16.7593C235.564 16.732 235.543 16.6993 235.529 16.6633C235.515 16.6273 235.508 16.5888 235.51 16.5502V14.9495C235.51 14.3921 235.218 14.0952 234.733 14.0952C234.296 14.0952 234.004 14.265 233.639 14.6056C232.692 15.4791 231.672 16.4028 230.531 17.1802C230.142 17.4237 229.997 17.6415 229.997 18.0056V18.515C229.997 18.9282 230.241 19.1471 230.629 19.1471H231.383C231.422 19.1459 231.46 19.1527 231.496 19.167C231.532 19.1813 231.565 19.2029 231.592 19.2303C231.619 19.2577 231.64 19.2905 231.654 19.3265C231.668 19.3626 231.675 19.4011 231.673 19.4397V26.1671C231.673 28.2077 232.913 29.2521 235.051 29.2521C237.429 29.2521 238.643 28.0369 238.643 26.7256C238.642 26.3134 238.424 26.072 238.059 26.072Z" fill="#00AFA2"/>
<path d="M271.357 16.6221C270.07 16.6221 268.928 17.2051 268.078 18.0316C267.811 18.274 267.568 18.1768 267.568 17.9109V17.3514C267.568 16.6221 267.132 16.4288 266.452 16.6221L262.928 17.6675C262.564 17.7646 262.395 18.007 262.395 18.3477V18.9553C262.395 19.3183 262.541 19.4646 262.928 19.5864C263.755 19.8298 263.923 20.1694 263.923 20.8496V25.9752C263.923 26.5091 263.755 26.7227 263.269 26.8978L262.905 27.0206C262.564 27.1413 262.395 27.3356 262.395 27.6998V28.38C262.395 28.7441 262.637 28.9876 263.026 28.9876H268.879C268.96 28.9924 269.041 28.98 269.117 28.9512C269.193 28.9223 269.262 28.8777 269.319 28.8203C269.376 28.7629 269.421 28.694 269.45 28.6181C269.479 28.5422 269.491 28.461 269.486 28.38V27.6998C269.486 27.3111 269.316 27.0932 268.976 27.0206L268.368 26.8733C267.883 26.7526 267.737 26.4856 267.737 25.9752V21.0632C267.737 20.1651 268.126 19.7262 268.831 19.7262C269.389 19.7262 269.802 20.0669 270.432 20.918C270.725 21.2821 270.918 21.4273 271.234 21.4273C271.645 21.4273 271.914 21.1849 271.962 20.7482L272.326 17.5895C272.402 16.9873 272.062 16.6221 271.357 16.6221Z" fill="#00AFA2"/>
<path d="M229.084 27.0164L228.719 26.8936C228.258 26.7238 228.087 26.4814 228.087 25.9709V17.3514C228.087 16.6221 227.627 16.4288 226.945 16.6221L223.279 17.7166C222.915 17.8127 222.745 18.0562 222.745 18.3957V19.0076C222.745 19.3717 222.891 19.518 223.279 19.6398C224.104 19.8822 224.275 20.2228 224.275 20.9019V25.9784C224.275 26.5123 224.104 26.7259 223.618 26.901L223.257 27.0164C222.917 27.137 222.746 27.3314 222.746 27.6955V28.3757C222.746 28.7398 222.989 28.9833 223.378 28.9833H228.988C229.069 28.9883 229.15 28.976 229.226 28.9472C229.302 28.9185 229.371 28.8739 229.429 28.8164C229.486 28.759 229.531 28.69 229.559 28.614C229.588 28.538 229.6 28.4568 229.596 28.3757V27.6955C229.593 27.3367 229.424 27.1402 229.084 27.0164Z" fill="#00AFA2"/>
<path d="M290.167 13.1875L289.193 15.9596L288.241 13.1875H287.416V16.5522H287.869V13.542L288.931 16.5522H289.375L290.478 13.5217V16.5522H290.935V13.1875H290.167Z" fill="#00AFA2"/>
<path d="M280.757 21.407L278.959 20.9222C277.551 20.5335 276.943 20.1694 276.943 19.4892C276.943 18.8816 277.381 18.4694 278.351 18.4694C279.469 18.4694 280.635 19.1731 282.141 20.6307C282.255 20.7497 282.408 20.8247 282.572 20.8424C282.736 20.8602 282.901 20.8196 283.039 20.7279L283.282 20.5816C283.574 20.4364 283.646 20.1449 283.476 19.8053L282.194 17.109C282.049 16.8175 281.874 16.6712 281.563 16.6712C281.252 16.6712 280.98 16.841 280.423 16.841C279.669 16.841 278.942 16.6221 278.065 16.6221C275.249 16.6221 273.646 17.9825 273.646 20.194C273.646 22.3798 275.079 23.3505 277.142 23.9592L278.989 24.5166C280.325 24.9053 280.911 25.3708 280.911 26.0959C280.911 26.821 280.377 27.2374 279.405 27.2374C277.924 27.2374 276.393 26.3137 274.985 24.6137C274.718 24.2742 274.402 24.2261 274.086 24.4002L273.649 24.6426C273.309 24.8369 273.188 25.1765 273.381 25.5417L274.912 28.6747C275.058 28.9662 275.301 29.1851 275.615 29.1851C276.102 29.1851 276.296 28.8936 276.903 28.8936C277.509 28.8936 278.264 29.2578 279.572 29.2578C282.561 29.2578 284.429 27.8482 284.405 25.2982C284.4 23.0654 283.039 22.0146 280.757 21.407Z" fill="#00AFA2"/>
<path d="M283.781 13.5837H284.908V16.5522H285.371V13.5837H286.498V13.1875H283.781V13.5837Z" fill="#00AFA2"/>
<path d="M119.544 25.0512C119.155 24.7853 118.69 24.9797 118.378 25.2712C117.646 25.8928 116.714 26.2291 115.754 26.2184C114.176 26.2184 112.913 25.4901 112.23 24.3486C112.133 24.1788 112.158 24.008 112.352 23.9353L118.957 21.5306C119.395 21.3608 119.541 21.0938 119.419 20.6315C118.742 18.0569 116.848 16.5513 114.031 16.5513C110.412 16.5513 107.935 19.1984 107.935 22.9145C107.935 26.6306 110.582 29.2585 114.395 29.2585C117.406 29.2585 119.082 27.8703 119.713 26.2216C119.956 25.6097 119.884 25.2958 119.544 25.0512ZM111.407 21.7495V21.6032C111.407 19.7323 112.427 18.688 113.765 18.688C114.566 18.688 115.269 19.1247 115.58 20.0249C115.677 20.2385 115.58 20.3891 115.385 20.4617L111.742 21.9182C111.529 22.0154 111.407 21.9182 111.407 21.7495Z" fill="#00AFA2"/>
<path d="M154.584 11.983H148.271C147.881 11.983 147.663 12.2265 147.663 12.5895V13.2943C147.663 13.7086 147.808 13.8538 148.148 13.9991L148.682 14.1945C149.192 14.3643 149.363 14.6302 149.363 15.1641V18.5897C149.365 18.6284 149.358 18.667 149.344 18.703C149.33 18.739 149.308 18.7718 149.281 18.7992C149.254 18.8265 149.221 18.848 149.185 18.8621C149.149 18.8762 149.11 18.8827 149.072 18.8812H143.121C143.083 18.8827 143.044 18.8762 143.008 18.8621C142.972 18.848 142.939 18.8265 142.912 18.7992C142.884 18.7718 142.863 18.739 142.849 18.703C142.835 18.667 142.828 18.6284 142.83 18.5897V15.163C142.83 14.6291 142.998 14.3632 143.485 14.1934L144.044 13.998C144.383 13.8528 144.53 13.7076 144.53 13.2932V12.5885C144.53 12.2254 144.311 11.9819 143.922 11.9819H137.608C137.22 11.9819 136.977 12.2254 136.977 12.5885V13.2932C136.977 13.7076 137.122 13.8528 137.487 13.998L138.021 14.1934C138.53 14.3632 138.701 14.6291 138.701 15.163V25.8029C138.701 26.3368 138.53 26.6049 138.021 26.7746L137.487 26.969C137.122 27.1153 136.977 27.2605 136.977 27.6727V28.3775C136.977 28.7416 137.22 28.9851 137.608 28.9851H143.926C144.315 28.9851 144.534 28.7416 144.534 28.3775V27.6727C144.534 27.2605 144.387 27.1153 144.048 26.969L143.49 26.7746C143.003 26.6049 142.834 26.3368 142.834 25.8029V21.3821C142.832 21.3434 142.839 21.3048 142.853 21.2688C142.867 21.2327 142.889 21.2 142.916 21.1726C142.943 21.1452 142.976 21.1238 143.012 21.1097C143.048 21.0956 143.087 21.0891 143.125 21.0906H149.076C149.114 21.0891 149.153 21.0956 149.189 21.1097C149.225 21.1238 149.258 21.1452 149.285 21.1726C149.313 21.2 149.334 21.2327 149.348 21.2688C149.362 21.3048 149.369 21.3434 149.367 21.3821V25.8029C149.367 26.3368 149.196 26.6049 148.686 26.7746L148.152 26.969C147.813 27.1153 147.667 27.2605 147.667 27.6727V28.3775C147.667 28.7416 147.881 28.9851 148.275 28.9851H154.588C155.002 28.9851 155.219 28.7416 155.219 28.3775V27.6727C155.219 27.2605 155.075 27.1153 154.71 26.969L154.176 26.7746C153.666 26.6049 153.496 26.3368 153.496 25.8029V15.163C153.496 14.6291 153.666 14.3632 154.176 14.1934L154.71 13.998C155.075 13.8528 155.219 13.7076 155.219 13.2932V12.5885C155.215 12.2265 154.997 11.983 154.584 11.983Z" fill="#00AFA2"/>
<path d="M162.291 16.5513C158.502 16.5513 155.885 19.2209 155.885 22.9145C155.885 26.5825 158.507 29.2542 162.291 29.2542C166.075 29.2542 168.697 26.6071 168.697 22.9145C168.697 19.2219 166.078 16.5513 162.291 16.5513ZM162.947 26.8025C161.173 26.8025 159.62 24.3732 159.62 21.6288C159.62 19.9523 160.421 19.0052 161.634 19.0052C163.409 19.0052 164.961 21.4334 164.961 24.1788C164.96 25.8521 164.183 26.8025 162.944 26.8025H162.947Z" fill="#00AFA2"/>
<path d="M134.115 27.0218L133.752 26.899C133.265 26.7292 133.121 26.4611 133.121 25.9753V11.5243C133.121 10.795 132.634 10.6241 131.979 10.8195L128.242 11.8873C127.878 12.0091 127.708 12.228 127.708 12.591V13.1752C127.708 13.5393 127.83 13.7091 128.242 13.8062C129.189 14.0497 129.31 14.4138 129.31 15.0706V16.5516C129.31 16.7214 129.189 16.8197 128.989 16.7652C128.398 16.6499 127.796 16.593 127.193 16.5954C123.817 16.5954 121.17 19.0963 121.17 23.1776C121.17 27.3325 123.429 29.2514 126.1 29.2514C127.362 29.2514 128.286 28.8136 129.09 28.1334C129.259 27.9881 129.43 27.9881 129.502 28.2305L129.551 28.4014C129.674 28.7645 129.915 28.9834 130.305 28.9834H134.02C134.384 28.9834 134.627 28.7399 134.627 28.3523V27.6966C134.626 27.3368 134.457 27.1232 134.115 27.0218ZM129.311 25.9539C129.311 26.3426 129.166 26.537 128.898 26.6833C128.592 26.8461 128.25 26.9295 127.903 26.9257C126.324 26.9257 125.158 25.2011 125.158 22.6543C125.158 20.2987 126.3 18.7439 127.975 18.7439C128.24 18.7345 128.504 18.7754 128.753 18.8646C129.074 18.9383 129.311 19.1849 129.311 19.6676V25.9539Z" fill="#00AFA2"/>
<path d="M208.629 25.0513C208.241 24.7833 207.775 24.9776 207.463 25.2702C206.731 25.891 205.8 26.2269 204.84 26.2163C203.262 26.2163 202 25.4881 201.317 24.3466C201.218 24.1768 201.243 24.0059 201.437 23.9344L208.043 21.5285C208.481 21.3588 208.626 21.0918 208.505 20.6305C207.825 18.0559 205.93 16.5503 203.114 16.5503C199.494 16.5503 197.018 19.1975 197.018 22.9135C197.018 26.6296 199.671 29.2586 203.485 29.2586C206.496 29.2586 208.172 27.8704 208.804 26.2217C209.047 25.6098 208.973 25.2937 208.629 25.0513ZM200.492 21.7474V21.6011C200.492 19.7303 201.513 18.687 202.849 18.687C203.651 18.687 204.355 19.1248 204.67 20.0229C204.767 20.2418 204.67 20.387 204.477 20.4607L200.835 21.9172C200.622 22.0144 200.497 21.9172 200.497 21.7474H200.492Z" fill="#00AFA2"/>
<path d="M183.141 27.0163L182.801 26.8935C182.316 26.7237 182.146 26.4813 182.146 25.9708V17.3214C182.146 16.6155 181.685 16.4223 181.029 16.6155L177.337 17.7101C176.973 17.8307 176.827 18.0496 176.827 18.3892V19.0075C176.827 19.3716 176.973 19.5179 177.36 19.6397C178.161 19.8532 178.332 20.1981 178.332 20.8773V25.2009C178.332 25.5416 178.259 25.7605 177.919 25.9484C177.269 26.3253 176.535 26.5338 175.783 26.5549C175.036 26.5549 174.74 26.1193 174.74 25.2191V17.3278C174.74 16.622 174.278 16.4287 173.622 16.622L169.931 17.7165C169.543 17.8371 169.397 18.0561 169.397 18.3956V19.0075C169.397 19.3716 169.544 19.5179 169.931 19.6397C170.758 19.8532 170.926 20.1981 170.926 20.8773V25.517C170.926 27.8961 171.946 29.2544 174.375 29.2544C175.711 29.2544 176.852 28.9138 177.677 28.2581L178.115 27.9186C178.31 27.7733 178.455 27.8695 178.504 28.1118L178.552 28.3308C178.673 28.7931 178.891 28.9875 179.354 28.9875H183.045C183.13 28.9942 183.215 28.9825 183.294 28.9531C183.374 28.9238 183.447 28.8774 183.507 28.8173C183.567 28.7572 183.613 28.6848 183.643 28.605C183.672 28.5252 183.684 28.4401 183.677 28.3553V27.6997C183.676 27.3366 183.482 27.1166 183.141 27.0163Z" fill="#00AFA2"/>
<path d="M217.571 21.407L215.774 20.9222C214.366 20.5335 213.759 20.1694 213.759 19.4892C213.759 18.8816 214.196 18.4694 215.167 18.4694C216.285 18.4694 217.451 19.1731 218.956 20.6307C219.071 20.7496 219.224 20.8245 219.388 20.8422C219.552 20.86 219.718 20.8195 219.855 20.7279L220.098 20.5816C220.389 20.4364 220.462 20.1449 220.292 19.8053L219.004 17.109C218.859 16.8175 218.684 16.6712 218.373 16.6712C218.063 16.6712 217.789 16.841 217.231 16.841C216.483 16.841 215.75 16.6221 214.882 16.6221C212.064 16.6221 210.46 17.9825 210.46 20.194C210.46 22.3798 211.894 23.3505 213.959 23.9592L215.804 24.5166C217.14 24.9053 217.726 25.3708 217.726 26.0959C217.726 26.821 217.192 27.2374 216.221 27.2374C214.739 27.2374 213.209 26.3137 211.8 24.6137C211.531 24.2742 211.217 24.2261 210.901 24.4002L210.464 24.6426C210.124 24.8369 210.003 25.1765 210.197 25.5417L211.727 28.6747C211.872 28.9662 212.116 29.1851 212.431 29.1851C212.917 29.1851 213.11 28.8936 213.713 28.8936C214.315 28.8936 215.074 29.2578 216.382 29.2578C219.372 29.2578 221.239 27.8482 221.215 25.2982C221.215 23.0654 219.855 22.0146 217.571 21.407Z" fill="#00AFA2"/>
<path d="M191.901 21.407L190.103 20.9222C188.694 20.5335 188.087 20.1694 188.087 19.4892C188.087 18.8816 188.524 18.4694 189.495 18.4694C190.613 18.4694 191.778 19.1731 193.284 20.6307C193.399 20.7495 193.552 20.8243 193.716 20.8421C193.88 20.8599 194.045 20.8194 194.182 20.7279L194.426 20.5816C194.717 20.4364 194.79 20.1449 194.62 19.8053L193.332 17.109C193.187 16.8175 193.012 16.6712 192.701 16.6712C192.391 16.6712 192.118 16.841 191.56 16.841C190.806 16.841 190.079 16.6221 189.206 16.6221C186.387 16.6221 184.784 17.9825 184.784 20.194C184.784 22.3798 186.216 23.3505 188.282 23.9592L190.127 24.5166C191.463 24.9053 192.049 25.3708 192.049 26.0959C192.049 26.821 191.515 27.2374 190.541 27.2374C189.062 27.2374 187.53 26.3137 186.122 24.6137C185.854 24.2742 185.538 24.2261 185.223 24.4002L184.786 24.6426C184.446 24.8369 184.324 25.1765 184.518 25.5417L186.048 28.6747C186.195 28.9662 186.438 29.1851 186.753 29.1851C187.239 29.1851 187.433 28.8936 188.04 28.8936C188.646 28.8936 189.401 29.2578 190.709 29.2578C193.699 29.2578 195.566 27.8482 195.541 25.2982C195.542 23.0654 194.182 22.0146 191.901 21.407Z" fill="#00AFA2"/>
</g>
<defs>
<clipPath id="clip0">
<rect width="290.935" height="40" fill="white"/>
</clipPath>
</defs>
</svg>
